IMDb : http://www.imdb.com/title/tt0120660/

Language : English
 
http://www.piczend.com/image/1358821572_vlcsnap-2013-01-21-19h24m39s111.png 
http://www.piczend.com/image/1358821570_vlcsnap-2013-01-21-19h24m44s159.png 
http://www.piczend.com/image/1358821571_vlcsnap-2013-01-21-19h25m09s158.png 
http://www.piczend.com/image/1358821570_vlcsnap-2013-01-21-19h25m14s199.png 
http://www.piczend.com/image/1358821571_vlcsnap-2013-01-21-19h25m18s239.png 
http://www.piczend.com/image/1358821572_vlcsnap-2013-01-21-19h25m22s23.png

Format                                   : MPEG-4
Format profile                           : Base Media / Version 2
Codec ID                                 : mp42
File size                                : 837 MiB
Duration                                 : 2h 19mn
Overall bit rate                         : 840 Kbps
Encoded date                             : UTC 2013-01-21 02:57:25
Tagged date                              : UTC 2013-01-21 03:19:47

Video
ID                                       : 1
Format                                   : AVC
Format/Info                              : Advanced Video Codec
Format profile                           : Main@L3.0
Format settings, CABAC                   : Yes
Format settings, ReFrames                : 1 frame
Codec ID                                 : avc1
Codec ID/Info                            : Advanced Video Coding
Duration                                 : 2h 19mn
Bit rate mode                            : Variable
Bit rate                                 : 774 Kbps
Width                                    : 720 pixels
Height                                   : 302 pixels
Display aspect ratio                     : 2.40:1
Frame rate mode                          : Variable
Frame rate                               : 23.976 fps
Minimum frame rate                       : 23.974 fps
Maximum frame rate                       : 90.000 fps
Color space                              : YUV
Chroma subsampling                       : 4:2:0
Bit depth                                : 8 bits
Scan type                                : Progressive
Bits/(Pixel*Frame)                       : 0.148
Stream size                              : 771 MiB (92%)
Writing library                          : x264 core
Encoded date                             : UTC 2013-01-21 02:57:25
Tagged date                              : UTC 2013-01-21 03:19:39
Color primaries                          : BT.601 NTSC
Transfer characteristics                 : BT.709
Matrix coefficients                      : BT.601

Audio
ID                                       : 2
Format                                   : MPEG Audio
Format version                           : Version 1
Format profile                           : Layer 3
Mode                                     : Joint stereo
Mode extension                           : MS Stereo
Codec ID                                 : 69
Duration                                 : 2h 19mn
Bit rate mode                            : Constant
Bit rate                                 : 64.0 Kbps
Channel(s)                               : 2 channels
Sampling rate                            : 48.0 KHz
Compression mode                         : Lossy
Stream size                              : 63.8 MiB (8%)
Writing library                          : LAME3.98.4
Encoded date                             : UTC 2013-01-21 02:57:25
Tagged date                              : UTC 2013-01-21 03:19:30
